<svg width="17" height="13" viewBox="0 0 17 13" fill="none" xmlns="http://www.w3.org/2000/svg">
<path d="M6.42 0.959999C7.63333 0.959999 8.58 1.27333 9.26 1.9C9.95333 2.52667 10.3 3.54 10.3 4.94V12H7.78V5.44C7.78 4.62667 7.62 4.02 7.3 3.62C6.98 3.20667 6.47333 3 5.78 3C4.76667 3 4.07333 3.32 3.7 3.96C3.32667 4.58667 3.14 5.5 3.14 6.7V12H0.62V1.16H2.56L2.92 2.58H3.06C3.3 2.20667 3.59333 1.9 3.94 1.66C4.28667 1.42 4.67333 1.24667 5.1 1.14C5.52667 1.02 5.96667 0.959999 6.42 0.959999ZM13.092 10.72C13.092 10.16 13.2387 9.76667 13.532 9.54C13.8254 9.3 14.1854 9.18 14.612 9.18C15.0387 9.18 15.3987 9.29333 15.692 9.52C15.9987 9.74667 16.152 10.1467 16.152 10.72C16.152 11.2667 15.9987 11.66 15.692 11.9C15.3987 12.14 15.0387 12.26 14.612 12.26C14.1854 12.26 13.8254 12.14 13.532 11.9C13.2387 11.66 13.092 11.2667 13.092 10.72Z" fill="#2F4858"/>
</svg>
