<svg width="167" height="17" viewBox="0 0 167 17" fill="none" xmlns="http://www.w3.org/2000/svg">
<path d="M6.42 4.96C7.63333 4.96 8.58 5.27333 9.26 5.9C9.95333 6.52667 10.3 7.54 10.3 8.94V16H7.78V9.44C7.78 8.62667 7.62 8.02 7.3 7.62C6.98 7.20667 6.47333 7 5.78 7C4.76667 7 4.07333 7.32 3.7 7.96C3.32667 8.58667 3.14 9.5 3.14 10.7V16H0.62V5.16H2.56L2.92 6.58H3.06C3.3 6.20667 3.59333 5.9 3.94 5.66C4.28667 5.42 4.67333 5.24667 5.1 5.14C5.52667 5.02 5.96667 4.96 6.42 4.96ZM23.132 10.56C23.132 11.4667 23.012 12.2667 22.772 12.96C22.532 13.6533 22.1854 14.2467 21.732 14.74C21.292 15.22 20.7454 15.5867 20.092 15.84C19.452 16.08 18.7387 16.2 17.952 16.2C17.2054 16.2 16.5187 16.08 15.892 15.84C15.2654 15.5867 14.7187 15.22 14.252 14.74C13.7987 14.2467 13.4454 13.6533 13.192 12.96C12.9387 12.2667 12.812 11.4667 12.812 10.56C12.812 9.36 13.0187 8.34667 13.432 7.52C13.8454 6.68 14.4387 6.04667 15.212 5.62C15.9987 5.18 16.9254 4.96 17.992 4.96C19.0054 4.96 19.892 5.18 20.652 5.62C21.4254 6.04667 22.032 6.68 22.472 7.52C22.912 8.34667 23.132 9.36 23.132 10.56ZM15.392 10.56C15.392 11.32 15.4787 11.9733 15.652 12.52C15.8387 13.0533 16.1187 13.46 16.492 13.74C16.8787 14.02 17.372 14.16 17.972 14.16C18.5854 14.16 19.0787 14.02 19.452 13.74C19.8387 13.46 20.1187 13.0533 20.292 12.52C20.4654 11.9733 20.552 11.32 20.552 10.56C20.552 9.78667 20.4587 9.14 20.272 8.62C20.0987 8.08667 19.8187 7.68667 19.432 7.42C19.0587 7.14 18.572 7 17.972 7C17.0654 7 16.4054 7.30667 15.992 7.92C15.592 8.53333 15.392 9.41333 15.392 10.56ZM29.9372 14.18C30.2572 14.18 30.5639 14.1533 30.8572 14.1C31.1505 14.0333 31.4239 13.96 31.6772 13.88V15.76C31.4105 15.88 31.0639 15.98 30.6372 16.06C30.2105 16.1533 29.7639 16.2 29.2972 16.2C28.6839 16.2 28.1239 16.1 27.6172 15.9C27.1239 15.6867 26.7239 15.3267 26.4172 14.82C26.1239 14.3133 25.9772 13.6067 25.9772 12.7V7.06H24.5172V5.96L26.1172 5.08L26.9172 2.78H28.4972V5.16H31.5772V7.06H28.4972V12.68C28.4972 13.1867 28.6305 13.5667 28.8972 13.82C29.1639 14.06 29.5105 14.18 29.9372 14.18ZM46.4375 12.86C46.4375 13.58 46.2642 14.1933 45.9175 14.7C45.5708 15.1933 45.0575 15.5667 44.3775 15.82C43.7108 16.0733 42.8908 16.2 41.9175 16.2C41.1575 16.2 40.5042 16.1467 39.9575 16.04C39.4108 15.9333 38.8908 15.7667 38.3975 15.54V13.4C38.9308 13.6533 39.5242 13.8667 40.1775 14.04C40.8308 14.2133 41.4375 14.3 41.9975 14.3C42.6908 14.3 43.1908 14.1933 43.4975 13.98C43.8042 13.7667 43.9575 13.48 43.9575 13.12C43.9575 12.9067 43.8975 12.7133 43.7775 12.54C43.6575 12.3667 43.4242 12.1867 43.0775 12C42.7308 11.8 42.2042 11.5533 41.4975 11.26C40.8042 10.98 40.2242 10.7 39.7575 10.42C39.3042 10.14 38.9575 9.80667 38.7175 9.42C38.4908 9.02 38.3775 8.52 38.3775 7.92C38.3775 6.94667 38.7642 6.21333 39.5375 5.72C40.3108 5.21333 41.3308 4.96 42.5975 4.96C43.2642 4.96 43.8908 5.02667 44.4775 5.16C45.0775 5.28 45.6775 5.48 46.2775 5.76L45.4775 7.62C45.1442 7.47333 44.8108 7.34667 44.4775 7.24C44.1575 7.12 43.8308 7.02667 43.4975 6.96C43.1775 6.89333 42.8508 6.86 42.5175 6.86C41.9708 6.86 41.5575 6.94667 41.2775 7.12C40.9975 7.28 40.8575 7.50667 40.8575 7.8C40.8575 8.02667 40.9242 8.22667 41.0575 8.4C41.2042 8.56 41.4508 8.72667 41.7975 8.9C42.1575 9.06 42.6642 9.27333 43.3175 9.54C43.9708 9.79333 44.5242 10.06 44.9775 10.34C45.4442 10.6067 45.8042 10.94 46.0575 11.34C46.3108 11.74 46.4375 12.2467 46.4375 12.86ZM58.5422 10.56C58.5422 11.4667 58.4222 12.2667 58.1822 12.96C57.9422 13.6533 57.5955 14.2467 57.1422 14.74C56.7022 15.22 56.1555 15.5867 55.5022 15.84C54.8622 16.08 54.1489 16.2 53.3622 16.2C52.6155 16.2 51.9289 16.08 51.3022 15.84C50.6755 15.5867 50.1289 15.22 49.6622 14.74C49.2089 14.2467 48.8555 13.6533 48.6022 12.96C48.3489 12.2667 48.2222 11.4667 48.2222 10.56C48.2222 9.36 48.4289 8.34667 48.8422 7.52C49.2555 6.68 49.8489 6.04667 50.6222 5.62C51.4089 5.18 52.3355 4.96 53.4022 4.96C54.4155 4.96 55.3022 5.18 56.0622 5.62C56.8355 6.04667 57.4422 6.68 57.8822 7.52C58.3222 8.34667 58.5422 9.36 58.5422 10.56ZM50.8022 10.56C50.8022 11.32 50.8889 11.9733 51.0622 12.52C51.2489 13.0533 51.5289 13.46 51.9022 13.74C52.2889 14.02 52.7822 14.16 53.3822 14.16C53.9955 14.16 54.4889 14.02 54.8622 13.74C55.2489 13.46 55.5289 13.0533 55.7022 12.52C55.8755 11.9733 55.9622 11.32 55.9622 10.56C55.9622 9.78667 55.8689 9.14 55.6822 8.62C55.5089 8.08667 55.2289 7.68667 54.8422 7.42C54.4689 7.14 53.9822 7 53.3822 7C52.4755 7 51.8155 7.30667 51.4022 7.92C51.0022 8.53333 50.8022 9.41333 50.8022 10.56ZM70.5427 14.18C70.8627 14.18 71.1693 14.1533 71.4627 14.1C71.756 14.0333 72.0293 13.96 72.2827 13.88V15.76C72.016 15.88 71.6693 15.98 71.2427 16.06C70.816 16.1533 70.3693 16.2 69.9027 16.2C69.2893 16.2 68.7293 16.1 68.2227 15.9C67.7293 15.6867 67.3293 15.3267 67.0227 14.82C66.7293 14.3133 66.5827 13.6067 66.5827 12.7V7.06H65.1227V5.96L66.7227 5.08L67.5227 2.78H69.1027V5.16H72.1827V7.06H69.1027V12.68C69.1027 13.1867 69.236 13.5667 69.5027 13.82C69.7693 14.06 70.116 14.18 70.5427 14.18ZM80.1477 4.96C80.3077 4.96 80.4943 4.96667 80.7077 4.98C80.921 4.99333 81.101 5.02 81.2477 5.06L81.0277 7.4C80.9077 7.37333 80.7477 7.35333 80.5477 7.34C80.361 7.31333 80.1943 7.3 80.0477 7.3C79.6477 7.3 79.261 7.36667 78.8877 7.5C78.5277 7.62 78.201 7.80667 77.9077 8.06C77.6277 8.3 77.401 8.61333 77.2277 9C77.0677 9.38667 76.9877 9.84667 76.9877 10.38V16H74.4677V5.16H76.4077L76.7677 7.04H76.8877C77.101 6.65333 77.3677 6.30667 77.6877 6C78.0077 5.68 78.3743 5.42667 78.7877 5.24C79.2143 5.05333 79.6677 4.96 80.1477 4.96ZM87.1861 4.96C88.5861 4.96 89.6461 5.26667 90.3661 5.88C91.0994 6.48 91.4661 7.42667 91.4661 8.72V16H89.6861L89.1861 14.5H89.1061C88.7994 14.8867 88.4794 15.2133 88.1461 15.48C87.8261 15.7333 87.4528 15.9133 87.0261 16.02C86.6128 16.14 86.1061 16.2 85.5061 16.2C84.8661 16.2 84.2861 16.08 83.7661 15.84C83.2594 15.6 82.8594 15.2333 82.5661 14.74C82.2728 14.2333 82.1261 13.6 82.1261 12.84C82.1261 11.72 82.5328 10.88 83.3461 10.32C84.1728 9.74667 85.4194 9.43333 87.0861 9.38L88.9661 9.32V8.78C88.9661 8.08667 88.7994 7.59333 88.4661 7.3C88.1328 7.00667 87.6661 6.86 87.0661 6.86C86.5194 6.86 85.9928 6.94 85.4861 7.1C84.9794 7.26 84.4861 7.44667 84.0061 7.66L83.2061 5.9C83.7394 5.62 84.3461 5.39333 85.0261 5.22C85.7194 5.04667 86.4394 4.96 87.1861 4.96ZM87.6461 10.92C86.5394 10.96 85.7728 11.1533 85.3461 11.5C84.9194 11.8333 84.7061 12.2867 84.7061 12.86C84.7061 13.3667 84.8594 13.7333 85.1661 13.96C85.4728 14.1867 85.8661 14.3 86.3461 14.3C87.0794 14.3 87.6994 14.0933 88.2061 13.68C88.7128 13.2533 88.9661 12.6267 88.9661 11.8V10.88L87.6461 10.92ZM98.2039 16.2C96.9506 16.2 95.9306 15.7333 95.1439 14.8C94.3706 13.8533 93.9839 12.4533 93.9839 10.6C93.9839 8.74667 94.3772 7.34667 95.1639 6.4C95.9506 5.44 96.9839 4.96 98.2639 4.96C98.7972 4.96 99.2639 5.03333 99.6639 5.18C100.077 5.31333 100.431 5.5 100.724 5.74C101.017 5.98 101.264 6.24667 101.464 6.54H101.584C101.544 6.35333 101.504 6.06667 101.464 5.68C101.424 5.29333 101.404 4.93333 101.404 4.6V0.799999H103.924V16H101.964L101.504 14.58H101.404C101.204 14.8733 100.957 15.1467 100.664 15.4C100.371 15.64 100.024 15.8333 99.6239 15.98C99.2239 16.1267 98.7506 16.2 98.2039 16.2ZM98.9639 14.16C99.8972 14.16 100.557 13.8933 100.944 13.36C101.331 12.8267 101.524 12.02 101.524 10.94V10.62C101.524 9.44667 101.337 8.55333 100.964 7.94C100.604 7.32667 99.9239 7.02 98.9239 7.02C98.1639 7.02 97.5772 7.34 97.1639 7.98C96.7506 8.60667 96.5439 9.49333 96.5439 10.64C96.5439 11.7867 96.7506 12.66 97.1639 13.26C97.5772 13.86 98.1772 14.16 98.9639 14.16ZM109.663 5.16V16H107.143V5.16H109.663ZM108.403 0.979999C108.777 0.979999 109.103 1.08 109.383 1.28C109.663 1.46667 109.803 1.80667 109.803 2.3C109.803 2.78 109.663 3.12667 109.383 3.34C109.103 3.54 108.777 3.64 108.403 3.64C108.017 3.64 107.683 3.54 107.403 3.34C107.137 3.12667 107.003 2.78 107.003 2.3C107.003 1.80667 107.137 1.46667 107.403 1.28C107.683 1.08 108.017 0.979999 108.403 0.979999ZM117.086 14.18C117.406 14.18 117.712 14.1533 118.006 14.1C118.299 14.0333 118.572 13.96 118.826 13.88V15.76C118.559 15.88 118.212 15.98 117.786 16.06C117.359 16.1533 116.912 16.2 116.446 16.2C115.832 16.2 115.272 16.1 114.766 15.9C114.272 15.6867 113.872 15.3267 113.566 14.82C113.272 14.3133 113.126 13.6067 113.126 12.7V7.06H111.666V5.96L113.266 5.08L114.066 2.78H115.646V5.16H118.726V7.06H115.646V12.68C115.646 13.1867 115.779 13.5667 116.046 13.82C116.312 14.06 116.659 14.18 117.086 14.18ZM123.531 5.16V16H121.011V5.16H123.531ZM122.271 0.979999C122.644 0.979999 122.971 1.08 123.251 1.28C123.531 1.46667 123.671 1.80667 123.671 2.3C123.671 2.78 123.531 3.12667 123.251 3.34C122.971 3.54 122.644 3.64 122.271 3.64C121.884 3.64 121.551 3.54 121.271 3.34C121.004 3.12667 120.871 2.78 120.871 2.3C120.871 1.80667 121.004 1.46667 121.271 1.28C121.551 1.08 121.884 0.979999 122.271 0.979999ZM136.433 10.56C136.433 11.4667 136.313 12.2667 136.073 12.96C135.833 13.6533 135.486 14.2467 135.033 14.74C134.593 15.22 134.046 15.5867 133.393 15.84C132.753 16.08 132.039 16.2 131.253 16.2C130.506 16.2 129.819 16.08 129.193 15.84C128.566 15.5867 128.019 15.22 127.553 14.74C127.099 14.2467 126.746 13.6533 126.493 12.96C126.239 12.2667 126.113 11.4667 126.113 10.56C126.113 9.36 126.319 8.34667 126.733 7.52C127.146 6.68 127.739 6.04667 128.513 5.62C129.299 5.18 130.226 4.96 131.293 4.96C132.306 4.96 133.193 5.18 133.953 5.62C134.726 6.04667 135.333 6.68 135.773 7.52C136.213 8.34667 136.433 9.36 136.433 10.56ZM128.693 10.56C128.693 11.32 128.779 11.9733 128.953 12.52C129.139 13.0533 129.419 13.46 129.793 13.74C130.179 14.02 130.673 14.16 131.273 14.16C131.886 14.16 132.379 14.02 132.753 13.74C133.139 13.46 133.419 13.0533 133.593 12.52C133.766 11.9733 133.853 11.32 133.853 10.56C133.853 9.78667 133.759 9.14 133.573 8.62C133.399 8.08667 133.119 7.68667 132.733 7.42C132.359 7.14 131.873 7 131.273 7C130.366 7 129.706 7.30667 129.293 7.92C128.893 8.53333 128.693 9.41333 128.693 10.56ZM144.838 4.96C146.051 4.96 146.998 5.27333 147.678 5.9C148.371 6.52667 148.718 7.54 148.718 8.94V16H146.198V9.44C146.198 8.62667 146.038 8.02 145.718 7.62C145.398 7.20667 144.891 7 144.198 7C143.185 7 142.491 7.32 142.118 7.96C141.745 8.58667 141.558 9.5 141.558 10.7V16H139.038V5.16H140.978L141.338 6.58H141.478C141.718 6.20667 142.011 5.9 142.358 5.66C142.705 5.42 143.091 5.24667 143.518 5.14C143.945 5.02 144.385 4.96 144.838 4.96ZM156.19 4.96C157.59 4.96 158.65 5.26667 159.37 5.88C160.103 6.48 160.47 7.42667 160.47 8.72V16H158.69L158.19 14.5H158.11C157.803 14.8867 157.483 15.2133 157.15 15.48C156.83 15.7333 156.457 15.9133 156.03 16.02C155.617 16.14 155.11 16.2 154.51 16.2C153.87 16.2 153.29 16.08 152.77 15.84C152.263 15.6 151.863 15.2333 151.57 14.74C151.277 14.2333 151.13 13.6 151.13 12.84C151.13 11.72 151.537 10.88 152.35 10.32C153.177 9.74667 154.423 9.43333 156.09 9.38L157.97 9.32V8.78C157.97 8.08667 157.803 7.59333 157.47 7.3C157.137 7.00667 156.67 6.86 156.07 6.86C155.523 6.86 154.997 6.94 154.49 7.1C153.983 7.26 153.49 7.44667 153.01 7.66L152.21 5.9C152.743 5.62 153.35 5.39333 154.03 5.22C154.723 5.04667 155.443 4.96 156.19 4.96ZM156.65 10.92C155.543 10.96 154.777 11.1533 154.35 11.5C153.923 11.8333 153.71 12.2867 153.71 12.86C153.71 13.3667 153.863 13.7333 154.17 13.96C154.477 14.1867 154.87 14.3 155.35 14.3C156.083 14.3 156.703 14.0933 157.21 13.68C157.717 13.2533 157.97 12.6267 157.97 11.8V10.88L156.65 10.92ZM166.148 16H163.628V0.799999H166.148V16Z" fill="#2F4858"/>
</svg>
